<svg xmlns="http://www.w3.org/2000/svg" xmlns:xlink="http://www.w3.org/1999/xlink" width="155" height="49"><defs><path id="A" d="M154 103.3h-11.45c-.8 0-1.2-.43-1.2-1.28v-3.9c-.03-.33.05-.66.24-.94.27-.22.62-.32.97-.27h10.06c1.97 0 2.96-.6 2.96-1.82v-.3c0-.98-.83-1.9-2.48-2.8l-5.96-3.34a13.69 13.69 0 0 1-4.53-3.4 7.29 7.29 0 0 1-1.44-4.68c0-2.83.74-4.92 2.23-6.26 1.5-1.33 3.82-2 7-2h10.06c.8 0 1.2.42 1.2 1.27v3.95a1.4 1.4 0 0 1-.23.94 1.3 1.3 0 0 1-.97.28h-8.38c-1.97 0-2.95.5-2.95 1.52v.3c0 .9.86 1.8 2.6 2.73l6.1 3.65c2.1 1.13 3.56 2.3 4.4 3.5a8 8 0 0 1 1.27 4.7c0 5.42-3.16 8.14-9.47 8.14z"/><path id="B" d="M178.6 86.3h-5.04v-6.96h5.04c.93 0 1.22.22 1.3.3.07.06.3.4.3 1.32v3.77c0 .88-.22 1.2-.3 1.28-.1.1-.36.3-1.3.3zm7.18-11.77c-1.5-1.47-3.6-2.2-6.22-2.2H167.7a1.87 1.87 0 0 0-2 2v27a1.87 1.87 0 0 0 2 1.98h3.85a1.87 1.87 0 0 0 2-1.99v-7.94h6c2.63 0 4.73-.75 6.22-2.22 1.5-1.47 2.27-3.53 2.27-6.15v-4.3c0-2.62-.76-4.7-2.26-6.16z"/><path id="C" d="M202.5 96.67h2.14c1.28 0 2.2-.25 2.73-.76.54-.53.8-1.44.8-2.74v-10.7c0-1.28-.26-2.2-.8-2.73-.54-.54-1.45-.8-2.73-.77h-2.15c-1.28 0-2.18.26-2.7.77-.52.53-.77 1.44-.77 2.73v10.7c0 1.3.26 2.2.77 2.74.5.52 1.4.76 2.7.76zm3.74 6.63h-5.35c-3.17 0-5.6-.85-7.33-2.56-1.73-1.7-2.6-4.14-2.6-7.34V82.22c0-3.2.86-5.65 2.6-7.35 1.72-1.7 4.16-2.55 7.33-2.55h5.35c3.12 0 5.56.86 7.3 2.58 1.75 1.72 2.62 4.16 2.62 7.3v11.2c0 3.16-.87 5.6-2.6 7.3-1.75 1.72-4.18 2.58-7.3 2.6z"/><path id="D" d="M241.03 74.12v2.62a1.75 1.75 0 0 1-1.86 1.88h-5.7v22.8a1.76 1.76 0 0 1-1.87 1.88h-4.26a1.77 1.77 0 0 1-1.92-1.88v-22.8h-5.63a1.75 1.75 0 0 1-1.87-1.89v-2.62a1.75 1.75 0 0 1 1.87-1.88h19.4a1.75 1.75 0 0 1 1.84 1.88z"/><path id="E" d="M124.93 97.86a6.1 6.1 0 0 1-.35 2.03c-.85 2.4-3.17 3.82-5.9 3.82H95.37v-1.8c0-3.3 2.64-4.55 5.92-4.62h23.64zM95.37 82.02a6.8 6.8 0 0 0 5 2.36h18.14a6.54 6.54 0 0 1 6.39 6.49v2.58a6.84 6.84 0 0 0-5.19-2.58h-17.86c-2.64 0-6.46-2.2-6.46-6.5zm.03-4.64c0-.67.1-1.33.32-1.96.83-2.45 3.17-3.9 5.9-3.9H125v1.8c0 3.4-2.8 4.62-6.23 4.62H95.4zm30.16-13.83H94.74A8.77 8.77 0 0 0 86 72.3v30.82a8.77 8.77 0 0 0 8.74 8.74h30.82a8.77 8.77 0 0 0 8.74-8.74V72.3a8.77 8.77 0 0 0-8.74-8.74z"/></defs><g transform="translate(-86 -63)"><g fill="#fff"><use xlink:href="#A"/><use xlink:href="#B"/><use xlink:href="#C"/><use xlink:href="#D"/></g><use xlink:href="#E" fill="#00e8b9"/></g></svg>