<svg xmlns="http://www.w3.org/2000/svg" viewBox="0 0 56.3 51.158">
  <defs>
    <style>
      .cls-1 {
        fill: #f5f5f5;
        stroke: #fff;
        stroke-linecap: round;
        stroke-linejoin: round;
        stroke-width: 2px;
      }
    </style>
  </defs>
  <g id="Group_152" data-name="Group 152" transform="translate(1.066 1)">
    <g id="Group_118_2_" transform="translate(2.234 2)">
      <g id="Group_1_2_">
        <g id="Path_11_2_">
          <path id="Path_9423" data-name="Path 9423" class="cls-1" d="M51.4,2.8H6.6c-7.9,0-8.8-3-8.9-4.8H43.1C47-2,50.1-.2,51.4,2.8Z"/>
        </g>
      </g>
      <g id="Group_2_2_" transform="translate(0 20.118)">
        <g id="Path_12_2_">
          <path id="Path_9424" data-name="Path 9424" class="cls-1" d="M51.4-.7c-1.8,4.5-6.7,6-8.8,6H4.4A19.856,19.856,0,0,0-1.5,6.4,9.479,9.479,0,0,1,7,.3H46A19.814,19.814,0,0,0,51.4-.7Z"/>
        </g>
      </g>
      <g id="Group_3_2_" transform="translate(0 44.358)">
        <g id="Path_13_2_">
          <path id="Path_9425" data-name="Path 9425" class="cls-1" d="M52,2.8H6.6C2.7,2.8-.5,1-1.7-2H43.8C51.1-1.8,51.9,1.1,52,2.8Z"/>
        </g>
      </g>
    </g>
  </g>
</svg>
